<svg width="351" height="135" viewBox="0 0 351 135" fill="none" xmlns="http://www.w3.org/2000/svg">
<path d="M341.842 132.967H9.52096C5.66423 132.967 2.66455 130.607 2.66455 127.573L2.87881 37.0619C2.87881 34.1966 5.87849 31.8369 9.73522 31.8369C9.73522 31.8369 9.73522 31.8369 9.94948 31.8369H342.271C345.913 31.8369 349.127 34.1966 349.127 37.0619L348.699 127.404C348.699 130.438 345.699 132.798 341.842 132.967Z" fill="white" stroke="#DAE6F1" stroke-width="1.12719"/>
<path d="M23.4155 49.1077H100.295C102.447 49.1077 104.191 50.8447 104.191 52.9883V111.271C104.191 113.415 102.447 115.152 100.295 115.152H23.4155C21.2634 115.152 19.5195 113.415 19.5195 111.271V53.0252C19.5195 50.8816 21.2634 49.1077 23.4155 49.1077Z" fill="#F0F5FA"/>
<path d="M26.2942 57.5752C25.3755 57.5752 24.6019 64.1058 24.6019 64.7623C24.5535 65.4188 25.2788 65.9716 26.1975 66.0407C27.1162 66.0753 27.8898 65.557 27.9865 64.9005C27.9865 64.8659 27.9865 64.8314 27.9865 64.7623C27.9865 64.1058 27.2129 57.5752 26.2942 57.5752Z" fill="#8191A0"/>
<path d="M54.2157 55.8818C53.7431 55.8818 53.3887 59.8617 53.3887 60.2734C53.4281 60.6851 53.8219 60.9938 54.2945 60.9595C54.7277 60.9252 55.0427 60.6508 55.0821 60.2734C55.0427 59.8617 54.6489 55.8818 54.2157 55.8818Z" fill="#8191A0"/>
<path d="M66.4467 71.063C82.9948 70.251 93.7047 62.6957 104.191 62.2368V56.6939C90.0975 59.9772 78.9043 55.8818 64.5501 55.8818C54.9559 55.8818 47.4814 62.1308 38.1475 66.2615C47.7045 68.4857 55.96 71.5926 66.4467 71.063Z" fill="#CAD1D9"/>
<path d="M104.191 62.6548H104.08C93.6075 63.1272 82.9121 70.9039 66.3863 71.7397C55.9137 72.2848 47.6694 69.0869 38.1624 66.7975C32.629 65.4529 26.65 64.3991 19.5198 64.5808V77.8085C20.5225 77.8448 21.488 77.9902 22.4164 78.3172C26.2787 79.5164 30.3637 82.6053 34.4116 84.713L34.4487 84.7494L35.0429 85.0401L35.1543 85.1128L35.7114 85.3671L35.8228 85.4398C36.0085 85.5125 36.2313 85.6215 36.417 85.6942L36.4912 85.7305C36.9369 85.9122 37.3825 86.0939 37.791 86.2393L37.9767 86.312L38.4224 86.4573L38.6452 86.53L39.0537 86.639L39.3136 86.6754C39.4622 86.7117 39.5736 86.7481 39.7221 86.7481L39.945 86.7844L40.3906 86.8571L40.5763 86.8934C40.7991 86.8934 40.9848 86.9298 41.2076 86.9298C48.375 87.1478 54.4283 78.1355 62.784 78.1355C71.1398 78.1355 79.0499 87.8746 87.1086 88.0563C87.3685 88.0563 87.5914 88.0563 87.8513 88.0563L88.1113 88.02C88.2598 88.02 88.4455 87.9836 88.594 87.9836C88.7055 87.9836 88.7797 87.9473 88.8911 87.9473C89.0025 87.9473 89.1882 87.9109 89.3368 87.8746C89.4853 87.8383 89.5596 87.8383 89.6339 87.8019C89.7081 87.7656 89.931 87.7656 90.0424 87.7292L90.3766 87.6566L90.7851 87.5475L91.1193 87.4385L91.5278 87.2932L91.8621 87.1841L92.2706 87.0388L92.6048 86.8934L93.0133 86.7117L93.3475 86.5664L93.756 86.3847L94.0531 86.2393L94.4616 86.0213L94.7587 85.8759L95.1672 85.6579L95.4643 85.5125L95.8728 85.2581L96.1328 85.1128L96.5413 84.8584L96.7641 84.713L97.2469 84.386L97.4326 84.277L98.0639 83.8409L98.101 83.8045L98.6581 83.4048L98.8438 83.2594L99.2523 82.9687L99.4751 82.787L99.8093 82.4963L100.032 82.3146L100.329 82.0602L100.552 81.8785C100.663 81.8058 100.738 81.7332 100.849 81.6242L101.072 81.4425C101.146 81.3698 101.258 81.2971 101.332 81.2244L101.518 81.0427L101.778 80.8247L101.963 80.6793L102.186 80.4613L102.335 80.3159L102.557 80.0979L102.706 79.9525L102.892 79.7708L103.04 79.6255C103.114 79.5528 103.152 79.5164 103.226 79.4438L103.337 79.3347L103.486 79.1894C103.523 79.153 103.56 79.1167 103.597 79.0804L103.746 78.935L103.82 78.8623L103.932 78.7533L103.969 78.717L104.043 78.6443L104.08 78.6079L104.191 78.4989V62.6548Z" fill="#8191A0"/>
<path d="M19.631 77.8962H19.5198L19.631 106.685H104.191V102.854L19.631 102.407V77.8962Z" fill="#E6EBEF"/>
<path d="M104.191 93.137H80.9246L63.5491 104.991H104.117L104.191 93.137Z" fill="white"/>
<path d="M44.3776 67.918L29.6802 67.7358L54.5781 103.298L66.6432 95.5369L66.9357 78.5211L44.3776 67.918Z" fill="#CAD1D9"/>
<path d="M30.163 67.7358L19.6288 78.874L19.5198 102.861L54.9003 103.298L55.0819 80.0024L30.163 67.7358Z" fill="white"/>
<path d="M44.1625 84.6705C41.8438 84.6324 39.9467 86.6472 39.9116 89.1562L39.8413 103.184L48.2377 103.298L48.308 89.2702C48.3431 86.7613 46.4812 84.7085 44.1625 84.6705Z" fill="#CAD1D9"/>
<path d="M28.0578 84.6706C26.2039 84.6338 24.7066 86.1798 24.6709 88.0941L24.5996 96.4503L31.302 96.524L31.3733 88.1677C31.3733 86.2535 29.876 84.7074 28.0578 84.6706Z" fill="#CAD1D9"/>
<path d="M60.2462 84.7636C59.3576 85.1948 58.5959 86.9589 58.5536 88.7621L58.469 96.524L61.7695 94.9951L61.8541 87.2333C61.8964 85.43 61.1771 84.3324 60.2462 84.7636Z" fill="#8191A0"/>
<path d="M65.3085 83.0489C64.3848 83.4316 63.637 84.9622 63.637 86.458L63.5491 93.1372L66.848 91.8153L66.9359 85.1709C66.9359 83.6403 66.2322 82.701 65.3085 83.0489Z" fill="#8191A0"/>
<path d="M79.6563 62.6548C78.2565 62.6548 77.0967 75.9164 77.0967 77.254C77.1367 78.5916 78.3365 79.6617 79.7363 79.5853C81.0561 79.5471 82.136 78.5152 82.176 77.254C82.216 75.9164 81.0561 62.6548 79.6563 62.6548Z" fill="#8191A0"/>
<path d="M75.4031 64.3481C74.4718 64.3481 73.7097 72.2749 73.7097 73.0675C73.7097 73.8602 74.4718 74.5087 75.4031 74.5087C76.3345 74.5087 77.0966 73.8602 77.0966 73.0675C77.0966 72.2749 76.3345 64.3481 75.4031 64.3481Z" fill="#8191A0"/>
<path d="M21.2139 54.1882C20.2774 54.1882 19.5211 63.3715 19.5211 64.2969C19.4851 65.2223 20.2054 66.0054 21.1418 66.041C22.0783 66.0766 22.8706 65.3647 22.9066 64.4393C22.9066 64.4037 22.9066 64.3325 22.9066 64.2969C22.9066 63.3715 22.1503 54.1882 21.2139 54.1882Z" fill="#8191A0"/>
<path d="M45.7681 59.2681C45.3095 59.2681 44.9214 64.5187 44.9214 65.0799C44.9214 65.6009 45.3095 66.0418 45.7681 66.0418C46.2267 66.0418 46.6148 65.6009 46.6148 65.0799C46.6148 64.5187 46.2267 59.2681 45.7681 59.2681Z" fill="#8191A0"/>
<path d="M104.192 94.8311H83.9205L73.7097 101.605H104.078L104.192 94.8311Z" fill="#CAD1D9"/>
<path d="M104.156 98.2166H85.8623L78.7903 103.297L104.192 103.165" fill="#8191A0"/>
<path d="M88.9508 82.9766H85.564V91.4437H88.9508V82.9766Z" fill="#CAD1D9"/>
<path d="M85.3084 76.2021L73.7097 82.9759H97.4178L85.3084 76.2021Z" fill="white"/>
<g clip-path="url(#clip0_6558_23493)">
<path d="M237.039 98.3204H132.898C128.021 98.1406 123.931 102.455 123.617 108.029C123.459 113.602 127.235 118.277 132.111 118.636C132.426 118.636 132.583 118.636 132.898 118.636H237.039C241.916 118.456 245.692 113.602 245.534 108.029C245.377 102.815 241.759 98.5001 237.039 98.3204Z" fill="#CAD1D9"/>
<g clip-path="url(#clip1_6558_23493)">
<path d="M126.303 58.6245H302.118C303.688 58.6245 304.809 57.5661 304.809 56.0843C304.809 54.6026 303.688 53.5442 302.118 53.5442H126.303C124.733 53.5442 123.612 54.6026 123.612 56.0843C123.612 57.5661 124.958 58.6245 126.303 58.6245Z" fill="#CAD1D9"/>
<path d="M126.304 71.5373H331.102C332.672 71.3256 333.793 70.0556 333.569 68.7855C333.345 67.5154 332.447 66.457 331.102 66.457H126.304C124.733 66.457 123.612 67.5154 123.612 68.9972C123.612 70.2673 124.958 71.5373 126.304 71.5373Z" fill="#CAD1D9"/>
<path d="M331.102 79.3696H126.304C124.733 79.3696 123.612 80.428 123.612 81.9098C123.612 83.3915 124.733 84.4499 126.304 84.4499H331.102C332.672 84.2383 333.793 82.9682 333.569 81.6981C333.569 80.428 332.447 79.3696 331.102 79.3696Z" fill="#CAD1D9"/>
</g>
</g>
<circle cx="184.703" cy="32.8991" r="22.6757" fill="white"/>
<path fill-rule="evenodd" clip-rule="evenodd" d="M184.703 3.74512C169.476 3.74512 157.168 16.0532 157.168 31.2799C157.168 46.5067 169.476 58.8147 184.703 58.8147C199.93 58.8147 212.238 46.5067 212.238 31.2799C212.238 16.0532 199.93 3.74512 184.703 3.74512ZM196.543 43.12C195.469 44.1938 193.734 44.1938 192.661 43.12L184.703 35.1624L176.745 43.12C175.672 44.1938 173.937 44.1938 172.863 43.12C171.789 42.0461 171.789 40.3114 172.863 39.2376L180.821 31.28L172.863 23.3224C171.789 22.2486 171.789 20.5139 172.863 19.44C173.937 18.3662 175.672 18.3662 176.745 19.44L184.703 27.3976L192.661 19.44C193.734 18.3662 195.469 18.3662 196.543 19.44C197.617 20.5139 197.617 22.2486 196.543 23.3224L188.585 31.28L196.543 39.2376C197.589 40.2839 197.589 42.0461 196.543 43.12Z" fill="#4F6076"/>
<defs>
<clipPath id="clip0_6558_23493">
<rect width="209.986" height="65.0921" fill="white" transform="translate(123.612 53.5442)"/>
</clipPath>
<clipPath id="clip1_6558_23493">
<rect width="209.986" height="30.9057" fill="white" transform="translate(123.612 53.5442)"/>
</clipPath>
</defs>
</svg>
